# Blender v2.77 (sub 0) OBJ File: ''
# www.blender.org
mtllib hammer_basic.mtl
o hammer_basic_hammer_basic_lp
v 0.000000 -2.798993 -0.347098
v 0.000000 1.864921 -0.363343
v 0.128519 -2.798993 -0.300596
v 0.134534 1.864921 -0.314664
v 0.222601 -2.798993 -0.173550
v 0.233019 1.864921 -0.181671
v 0.257038 -2.798993 -0.000001
v 0.269068 1.864921 -0.000000
v 0.222601 -2.798993 0.173548
v 0.233019 1.864921 0.181671
v 0.128519 -2.798993 0.300594
v 0.134534 1.864921 0.314664
v 0.000000 -2.798993 0.347096
v 0.000000 1.864921 0.363343
v -0.128519 -2.798993 0.300594
v -0.134534 1.864921 0.314664
v -0.222601 -2.798993 0.173548
v -0.233019 1.864921 0.181672
v -0.257038 -2.798993 -0.000001
v -0.269068 1.864921 -0.000000
v -0.222601 -2.798993 -0.173549
v -0.233019 1.864921 -0.181671
v -0.128519 -2.798993 -0.300596
v -0.134534 1.864921 -0.314664
v -0.003057 -2.852936 -0.325407
v 0.109304 -2.868149 -0.282531
v 0.203826 -2.855627 -0.170736
v 0.244164 -2.858209 -0.000001
v 0.211452 -2.858209 0.164855
v 0.113545 -2.848977 0.291445
v 0.000559 -2.848542 0.319343
v -0.122082 -2.858209 0.285539
v -0.203875 -2.852999 0.163059
v -0.234910 -2.843052 -0.002925
v -0.211452 -2.858209 -0.164857
v -0.123944 -2.862269 -0.283671
v -0.001171 -2.895419 -0.231088
v 0.079166 -2.894807 -0.205861
v 0.142314 -2.889497 -0.120167
v 0.181938 -2.885060 -0.010734
v 0.164930 -2.888299 0.124336
v 0.093091 -2.893059 0.233956
v 0.004244 -2.895737 0.256098
v -0.094595 -2.893839 0.230965
v -0.174948 -2.887384 0.133493
v -0.196418 -2.883109 -0.000175
v -0.159252 -2.886201 -0.130595
v -0.086670 -2.893739 -0.216528
v 0.000000 2.942696 -0.389140
v -0.000374 3.090936 -0.301378
v 0.144986 2.942696 -0.337006
v 0.132948 3.111870 -0.243655
v 0.251123 2.942696 -0.194570
v 0.219063 3.093629 -0.153890
v 0.289972 2.942696 0.000000
v 0.234670 3.097576 0.003662
v 0.251123 2.942696 0.194570
v 0.191533 3.111614 0.149655
v 0.144986 2.942696 0.337006
v 0.122271 3.112015 0.269070
v 0.000000 2.942696 0.389141
v 0.009741 3.117964 0.294529
v -0.144986 2.942696 0.337006
v -0.086302 3.112142 0.239366
v -0.251123 2.942696 0.194570
v -0.178296 3.105182 0.151387
v -0.289972 2.942696 0.000000
v -0.208129 3.112465 -0.003159
v -0.251123 2.942696 -0.194570
v -0.175688 3.112652 -0.161107
v -0.144986 2.942696 -0.337006
v -0.105513 3.107663 -0.258296
v 0.000377 3.046113 -0.374796
v 0.141887 3.054833 -0.330129
v 0.251123 3.076064 -0.194570
v 0.289972 3.076064 0.000000
v 0.251123 3.076064 0.194570
v 0.144986 3.076064 0.337006
v 0.000000 3.076064 0.389141
v -0.144986 3.076064 0.337006
v -0.251123 3.076064 0.194570
v -0.289972 3.076064 0.000000
v -0.251123 3.076064 -0.194570
v -0.144986 3.076064 -0.337006
v -0.516458 1.825533 1.258191
v -0.582148 1.891224 1.258191
v -0.582148 2.854356 1.258191
v -0.516458 2.989830 1.258191
v -0.582148 2.291713 -1.682666
v -0.516458 2.226022 -1.682666
v -0.516458 2.589342 -1.682666
v -0.582148 2.492234 -1.682666
v 0.582148 1.891224 1.258191
v 0.516458 1.825533 1.258191
v 0.516458 2.989830 1.258191
v 0.582148 2.854356 1.258191
v 0.516458 2.226022 -1.682666
v 0.582148 2.291713 -1.682666
v 0.582148 2.492234 -1.682666
v 0.516458 2.589342 -1.682666
v -0.516458 2.989830 -0.612247
v -0.582148 2.854356 -0.612247
v -0.582148 1.891224 -0.612247
v -0.516458 1.825533 -0.612247
v 0.582148 2.854356 -0.612247
v 0.516458 2.989830 -0.612247
v 0.516458 1.825533 -0.612247
v 0.582148 1.891224 -0.612247
v -0.582148 2.819809 -0.830464
v -0.516458 2.937030 -0.830464
v 0.582148 1.944025 -0.830464
v 0.516458 1.878334 -0.830464
v -0.582148 1.944025 -0.830464
v -0.516458 1.878334 -0.830464
v 0.582148 2.819809 -0.830464
v 0.516458 2.937030 -0.830464
v -0.582148 2.326072 -1.712342
v -0.516458 2.333873 -1.775816
v -0.582148 2.457875 -1.712342
v -0.516458 2.481491 -1.775816
v 0.582148 2.326072 -1.712342
v 0.516458 2.333873 -1.775816
v 0.582148 2.457875 -1.712342
v 0.516458 2.481491 -1.775816
v -0.475632 1.866358 1.353044
v -0.541324 1.932049 1.353044
v -0.541324 2.813531 1.353044
v -0.475632 2.949005 1.353044
v 0.541324 1.932049 1.353044
v 0.475632 1.866358 1.353044
v 0.475632 2.949005 1.353044
v 0.541324 2.813531 1.353044
v -0.475632 1.991012 1.419154
v -0.475632 2.824351 1.419154
v 0.475632 1.991012 1.419154
v 0.475632 2.824351 1.419154
vt 0.9602 0.2089
vt 0.9737 0.9590
vt 0.9426 0.9595
vt 0.9313 0.2116
vt 0.9114 0.9600
vt 0.9028 0.2126
vt 0.8805 0.9603
vt 0.8740 0.2129
vt 0.8496 0.9605
vt 0.8449 0.2131
vt 0.8185 0.9606
vt 0.8162 0.2135
vt 0.7871 0.9606
vt 0.7876 0.2142
vt 0.7562 0.9605
vt 0.7592 0.2136
vt 0.7249 0.9604
vt 0.7309 0.2142
vt 0.6933 0.9601
vt 0.7024 0.2143
vt 0.6624 0.9596
vt 0.6737 0.2124
vt 0.6316 0.9592
vt 0.6450 0.2111
vt 0.6013 0.9586
vt 0.6158 0.2088
vt 0.7022 0.2053
vt 0.7314 0.2042
vt 0.7447 0.1462
vt 0.7204 0.1605
vt 0.7182 0.1485
vt 0.7360 0.1364
vt 0.7592 0.2036
vt 0.7876 0.2049
vt 0.8139 0.2047
vt 0.8447 0.2028
vt 0.8739 0.2023
vt 0.6182 0.1993
vt 0.6463 0.2004
vt 0.9327 0.1994
vt 0.9590 0.1993
vt 0.9043 0.2025
vt 0.6742 0.2024
vt 0.7453 0.0700
vt 0.7591 0.0945
vt 0.7461 0.0971
vt 0.7337 0.0788
vt 0.6544 0.1215
vt 0.6544 0.0938
vt 0.6689 0.0960
vt 0.6673 0.1169
vt 0.6681 0.0697
vt 0.6915 0.0577
vt 0.6956 0.0720
vt 0.6804 0.0813
vt 0.6932 0.1590
vt 0.6950 0.1494
vt 0.7589 0.1247
vt 0.7470 0.1205
vt 0.7195 0.0559
vt 0.7152 0.0722
vt 0.6687 0.1448
vt 0.6766 0.1375
vt 0.8381 0.1778
vt 0.8414 0.1641
vt 0.8713 0.1615
vt 0.8703 0.1782
vt 0.8934 0.1528
vt 0.8988 0.1615
vt 0.9034 0.1290
vt 0.9155 0.1329
vt 0.9000 0.1036
vt 0.9157 0.0997
vt 0.8904 0.0814
vt 0.8991 0.0710
vt 0.8681 0.0713
vt 0.8700 0.0545
vt 0.8456 0.0745
vt 0.8368 0.0551
vt 0.8226 0.0831
vt 0.8084 0.0719
vt 0.8101 0.1057
vt 0.7920 0.1004
vt 0.8104 0.1323
vt 0.7920 0.1335
vt 0.8210 0.1513
vt 0.8088 0.1622
vt 0.0585 0.0481
vt 0.0585 0.0697
vt 0.0262 0.0648
vt 0.0258 0.0480
vt 0.0911 0.0481
vt 0.0911 0.0697
vt 0.1236 0.0481
vt 0.1236 0.0697
vt 0.1561 0.0481
vt 0.1561 0.0697
vt 0.1887 0.0481
vt 0.1887 0.0697
vt 0.2214 0.0481
vt 0.2214 0.0697
vt 0.2541 0.0481
vt 0.2541 0.0697
vt 0.2868 0.0481
vt 0.2868 0.0697
vt 0.3193 0.0481
vt 0.3193 0.0697
vt 0.3518 0.0481
vt 0.3518 0.0697
vt 0.3844 0.0481
vt 0.3841 0.0662
vt 0.4171 0.0492
vt 0.4158 0.0660
vt 0.5337 0.9624
vt 0.5337 0.7925
vt 0.5572 0.7925
vt 0.5572 0.9624
vt 0.3823 0.6222
vt 0.5337 0.6222
vt 0.5337 0.7922
vt 0.3823 0.7922
vt 0.5236 0.5356
vt 0.3848 0.5911
vt 0.3850 0.4433
vt 0.5226 0.5046
vt 0.5212 0.3388
vt 0.5234 0.3077
vt 0.5277 0.3136
vt 0.5261 0.3333
vt 0.3861 0.2468
vt 0.3817 0.3952
vt 0.5572 0.6222
vt 0.5572 0.7922
vt 0.0377 0.6222
vt 0.0377 0.7922
vt 0.0207 0.7854
vt 0.0207 0.6290
vt 0.0377 0.7925
vt 0.0377 0.9624
vt 0.0207 0.9557
vt 0.0207 0.7992
vt 0.5815 0.6222
vt 0.5815 0.7922
vt 0.3454 0.7925
vt 0.3454 0.9624
vt 0.5274 0.5102
vt 0.5280 0.5299
vt 0.3493 0.2399
vt 0.3454 0.4030
vt 0.3483 0.5968
vt 0.3485 0.4344
vt 0.3823 0.7925
vt 0.3823 0.9624
vt 0.4698 0.0330
vt 0.6168 0.0997
vt 0.6038 0.1209
vt 0.4631 0.0559
vt 0.0475 0.4335
vt 0.0413 0.5890
vt 0.0244 0.5828
vt 0.0298 0.4374
vt 0.3454 0.6222
vt 0.3454 0.7922
vt 0.0413 0.2391
vt 0.0455 0.3932
vt 0.0285 0.3887
vt 0.0238 0.2452
vt 0.5420 0.2675
vt 0.3960 0.2006
vt 0.4088 0.1795
vt 0.5490 0.2450
vt 0.6225 0.1164
vt 0.5636 0.2516
vt 0.3876 0.2241
vt 0.5275 0.2888
vt 0.3455 0.4182
vt 0.0436 0.4080
vt 0.3482 0.6219
vt 0.0390 0.6136
vt 0.3867 0.4277
vt 0.5265 0.4897
vt 0.0394 0.2142
vt 0.3500 0.2142
vt 0.3827 0.4107
vt 0.3855 0.6137
vt 0.0455 0.4185
vt 0.3491 0.4185
vt 0.5246 0.3538
vt 0.5270 0.5546
vt 0.5425 0.3087
vt 0.5413 0.3354
vt 0.5426 0.5086
vt 0.5426 0.5354
vt 0.0207 0.2193
vt 0.0207 0.6081
vt 0.0270 0.4219
vt 0.0250 0.4044
vt 0.3939 0.1730
vt 0.4541 0.0396
vn 0.0054 -0.1675 -0.9858
vn 0.0000 -0.0035 -1.0000
vn 0.5973 -0.0032 -0.8020
vn 0.5880 -0.1713 -0.7905
vn 0.9144 -0.0027 -0.4048
vn 0.9035 -0.1487 -0.4019
vn 1.0000 -0.0026 0.0000
vn 0.9927 -0.1207 -0.0041
vn 0.9144 -0.0027 0.4048
vn 0.9041 -0.1257 0.4084
vn 0.5973 -0.0032 0.8020
vn 0.5880 -0.1661 0.7916
vn 0.0000 -0.0035 1.0000
vn -0.0002 -0.1881 0.9822
vn -0.5973 -0.0032 0.8020
vn -0.5804 -0.1750 0.7953
vn -0.9144 -0.0027 0.4048
vn -0.9026 -0.1769 0.3923
vn -1.0000 -0.0026 0.0000
vn -0.9836 -0.1802 0.0067
vn -0.9144 -0.0027 -0.4048
vn -0.9079 -0.1362 -0.3965
vn -0.5973 -0.0032 -0.8020
vn -0.5829 -0.1376 -0.8008
vn -0.8320 -0.5547 0.0050
vn -0.7630 -0.5655 0.3133
vn 0.0058 -0.6011 0.7992
vn -0.4675 -0.5983 0.6508
vn -0.1990 -0.9493 0.2435
vn 0.0153 -0.9508 0.3095
vn 0.4379 -0.5827 0.6846
vn 0.7381 -0.5834 0.3389
vn 0.7942 -0.6076 -0.0114
vn -0.0072 -0.6333 -0.7739
vn -0.4582 -0.6337 -0.6233
vn 0.4081 -0.6891 -0.5988
vn 0.7027 -0.6311 -0.3284
vn -0.7444 -0.5993 -0.2944
vn 0.2576 -0.9617 0.0940
vn 0.2455 -0.9693 -0.0134
vn -0.1383 -0.9756 -0.1707
vn -0.2807 -0.9570 -0.0732
vn 0.1295 -0.9821 -0.1369
vn -0.0077 -0.9808 -0.1950
vn -0.3910 -0.9150 0.1001
vn 0.2003 -0.9427 0.2667
vn 0.2060 -0.9771 -0.0537
vn -0.3945 -0.9189 0.0000
vn 0.0329 0.4760 -0.8788
vn 0.0379 0.9255 -0.3768
vn 0.1825 0.9538 -0.2385
vn 0.4711 0.4770 -0.7420
vn 0.2588 0.9606 -0.1012
vn 0.7741 0.4951 -0.3945
vn 0.2388 0.9710 -0.0088
vn 0.8557 0.5174 -0.0027
vn 0.2224 0.9737 0.0494
vn 0.7949 0.4938 0.3526
vn 0.1898 0.9611 0.2008
vn 0.5120 0.4906 0.7051
vn -0.0056 0.9761 0.2172
vn -0.0115 0.5108 0.8596
vn -0.1230 0.9867 0.1059
vn -0.5100 0.5309 0.6767
vn -0.1866 0.9798 0.0726
vn -0.7678 0.5382 0.3475
vn -0.2043 0.9788 0.0138
vn -0.8517 0.5240 0.0039
vn -0.1921 0.9771 -0.0912
vn -0.7807 0.5177 -0.3500
vn -0.1005 0.9579 -0.2688
vn -0.4438 0.5410 -0.7144
vn -0.5749 0.0307 -0.8177
vn 0.0130 0.0814 -0.9966
vn -0.9136 0.0000 -0.4066
vn -1.0000 0.0000 -0.0000
vn -0.9136 -0.0000 0.4066
vn -0.5954 -0.0000 0.8034
vn -0.0000 -0.0000 1.0000
vn 0.5954 -0.0000 0.8034
vn 0.9136 -0.0000 0.4066
vn 1.0000 -0.0000 -0.0000
vn 0.9093 0.0139 -0.4158
vn 0.5753 0.0651 -0.8153
vn 0.3280 -0.7797 -0.5334
vn -0.3280 -0.7797 -0.5334
vn -0.3319 -0.3079 -0.8916
vn 0.3319 -0.3079 -0.8916
vn 0.4891 0.8329 -0.2588
vn 0.4244 0.7469 -0.5120
vn -0.4244 0.7469 -0.5120
vn -0.4891 0.8329 -0.2588
vn 0.9191 0.2975 -0.2582
vn 0.9591 0.2699 -0.0855
vn 0.9118 -0.3893 -0.1305
vn 0.8703 -0.3781 -0.3157
vn -0.8703 -0.3781 -0.3157
vn -0.9191 0.2975 -0.2582
vn -0.8961 0.1548 -0.4160
vn -0.8656 -0.2168 -0.4513
vn -0.9591 0.2699 -0.0855
vn -0.9118 -0.3893 -0.1305
vn 0.3617 0.3251 -0.8738
vn -0.3617 0.3251 -0.8738
vn 0.5256 0.8146 0.2454
vn -0.5256 0.8146 0.2454
vn -0.3506 0.6586 0.6658
vn 0.3506 0.6586 0.6658
vn -0.3875 -0.8894 0.2425
vn 0.3875 -0.8894 0.2425
vn 0.2417 -0.7008 0.6712
vn -0.2417 -0.7008 0.6712
vn -0.3714 -0.9222 -0.1078
vn 0.3714 -0.9222 -0.1078
vn 0.8656 -0.2168 -0.4513
vn 0.8961 0.1548 -0.4160
vn -0.9700 0.2415 -0.0258
vn -0.9127 -0.4055 -0.0512
vn 0.9700 0.2415 -0.0258
vn 0.9127 -0.4055 -0.0512
vn -0.3660 -0.8868 -0.2824
vn 0.3660 -0.8868 -0.2824
vn 0.3334 -0.1907 0.9233
vn -0.3334 -0.1907 0.9233
vn 0.8894 -0.3875 0.2425
vn 0.9442 0.2333 0.2327
vn 0.8117 0.1526 0.5638
vn 0.7277 -0.2835 0.6245
vn 0.5077 0.8562 -0.0960
vn -0.5077 0.8562 -0.0960
vn -0.9442 0.2333 0.2327
vn -0.8894 -0.3875 0.2425
vn -0.7277 -0.2835 0.6245
vn -0.8117 0.1526 0.5638
vn -0.3669 0.2219 0.9034
vn 0.3669 0.2219 0.9034
usemtl hammer_basic
s 1
f 1/1/1 2/2/2 4/3/3 3/4/4
f 3/4/4 4/3/3 6/5/5 5/6/6
f 5/6/6 6/5/5 8/7/7 7/8/8
f 7/8/8 8/7/7 10/9/9 9/10/10
f 9/10/10 10/9/9 12/11/11 11/12/12
f 11/12/12 12/11/11 14/13/13 13/14/14
f 13/14/14 14/13/13 16/15/15 15/16/16
f 15/16/16 16/15/15 18/17/17 17/18/18
f 17/18/18 18/17/17 20/19/19 19/20/20
f 19/20/20 20/19/19 22/21/21 21/22/22
f 21/22/22 22/21/21 24/23/23 23/24/24
f 23/24/24 24/23/23 2/25/2 1/26/1
f 17/18/18 19/20/20 34/27/25 33/28/26
f 31/29/27 32/30/28 44/31/29 43/32/30
f 15/16/16 17/18/18 33/28/26 32/33/28
f 13/14/14 15/16/16 32/33/28 31/34/27
f 11/12/12 13/14/14 31/34/27 30/35/31
f 9/10/10 11/12/12 30/35/31 29/36/32
f 7/8/8 9/10/10 29/36/32 28/37/33
f 23/24/24 1/26/1 25/38/34 36/39/35
f 1/1/1 3/4/4 26/40/36 25/41/34
f 5/6/6 7/8/8 28/37/33 27/42/37
f 21/22/22 23/24/24 36/39/35 35/43/38
f 3/4/4 5/6/6 27/42/37 26/40/36
f 19/20/20 21/22/22 35/43/38 34/27/25
f 28/44/33 29/45/32 41/46/39 40/47/40
f 35/48/38 36/49/35 48/50/41 47/51/42
f 25/52/34 26/53/36 38/54/43 37/55/44
f 32/30/28 33/56/26 45/57/45 44/31/29
f 29/45/32 30/58/31 42/59/46 41/46/39
f 36/49/35 25/52/34 37/55/44 48/50/41
f 26/53/36 27/60/37 39/61/47 38/54/43
f 33/56/26 34/62/25 46/63/48 45/57/45
f 30/58/31 31/29/27 43/32/30 42/59/46
f 27/60/37 28/44/33 40/47/40 39/61/47
f 34/62/25 35/48/38 47/51/42 46/63/48
f 37/55/44 38/54/43 39/61/47 48/50/41
f 48/50/41 39/61/47 40/47/40 47/51/42
f 47/51/42 40/47/40 41/46/39 46/63/48
f 46/63/48 41/46/39 42/59/46 45/57/45
f 45/57/45 42/59/46 43/32/30 44/31/29
f 73/64/49 50/65/50 52/66/51 74/67/52
f 74/67/52 52/66/51 54/68/53 75/69/54
f 75/69/54 54/68/53 56/70/55 76/71/56
f 76/71/56 56/70/55 58/72/57 77/73/58
f 77/73/58 58/72/57 60/74/59 78/75/60
f 78/75/60 60/74/59 62/76/61 79/77/62
f 79/77/62 62/76/61 64/78/63 80/79/64
f 80/79/64 64/78/63 66/80/65 81/81/66
f 81/81/66 66/80/65 68/82/67 82/83/68
f 82/83/68 68/82/67 70/84/69 83/85/70
f 52/66/51 50/65/50 72/86/71 70/84/69
f 83/85/70 70/84/69 72/86/71 84/87/72
f 84/87/72 72/86/71 50/65/50 73/64/49
f 71/88/73 84/89/72 73/90/49 49/91/74
f 69/92/75 83/93/70 84/89/72 71/88/73
f 67/94/76 82/95/68 83/93/70 69/92/75
f 65/96/77 81/97/66 82/95/68 67/94/76
f 63/98/78 80/99/64 81/97/66 65/96/77
f 61/100/79 79/101/62 80/99/64 63/98/78
f 59/102/80 78/103/60 79/101/62 61/100/79
f 57/104/81 77/105/58 78/103/60 59/102/80
f 55/106/82 76/107/56 77/105/58 57/104/81
f 53/108/83 75/109/54 76/107/56 55/106/82
f 51/110/84 74/111/52 75/109/54 53/108/83
f 49/112/74 73/113/49 74/111/52 51/110/84
f 70/84/69 68/82/67 54/68/53 52/66/51
f 68/82/67 66/80/65 56/70/55 54/68/53
f 66/80/65 64/78/63 58/72/57 56/70/55
f 58/72/57 64/78/63 62/76/61 60/74/59
f 97/114/85 90/115/86 118/116/87 122/117/88
f 116/118/89 100/119/90 91/120/91 110/121/92
f 99/122/93 115/123/94 111/124/95 98/125/96
f 89/126/97 92/127/98 119/128/99 117/129/100
f 109/130/101 92/127/98 89/126/97 113/131/102
f 91/120/91 100/119/90 124/132/103 120/133/104
f 95/134/105 88/135/106 128/136/107 131/137/108
f 85/138/109 94/139/110 130/140/111 125/141/112
f 120/133/104 124/132/103 122/142/88 118/143/87
f 85/138/109 104/144/113 107/145/114 94/139/110
f 99/122/93 98/125/96 121/146/115 123/147/116
f 102/148/117 109/130/101 113/131/102 103/149/118
f 115/123/94 105/150/119 108/151/120 111/124/95
f 104/144/113 114/152/121 112/153/122 107/145/114
f 125/154/112 130/155/111 135/156/123 133/157/124
f 93/158/125 96/159/126 132/160/127 129/161/128
f 114/152/121 90/115/86 97/114/85 112/153/122
f 106/162/129 116/118/89 110/121/92 101/163/130
f 105/150/119 96/159/126 93/158/125 108/151/120
f 95/134/105 106/162/129 101/163/130 88/135/106
f 87/164/131 86/165/132 126/166/133 127/167/134
f 131/168/108 128/169/107 134/170/135 136/171/136
f 136/171/136 135/156/123 129/172/128 132/173/127
f 136/171/136 134/170/135 133/157/124 135/156/123
f 110/174/92 91/175/91 92/127/98 109/130/101
f 104/176/113 85/177/109 86/165/132 103/149/118
f 106/178/129 95/179/105 96/159/126 105/150/119
f 112/180/122 97/181/85 98/125/96 111/124/95
f 88/182/106 101/183/130 102/148/117 87/164/131
f 114/184/121 104/176/113 103/149/118 113/131/102
f 116/185/89 106/178/129 105/150/119 115/123/94
f 94/186/110 107/187/114 108/151/120 93/158/125
f 101/183/130 110/174/92 109/130/101 102/148/117
f 107/187/114 112/180/122 111/124/95 108/151/120
f 90/188/86 114/184/121 113/131/102 89/126/97
f 100/189/90 116/185/89 115/123/94 99/122/93
f 120/190/104 118/191/87 117/129/100 119/128/99
f 123/147/116 121/146/115 122/192/88 124/193/103
f 89/126/97 117/129/100 118/191/87 90/188/86
f 121/146/115 98/125/96 97/181/85 122/192/88
f 99/122/93 123/147/116 124/193/103 100/189/90
f 119/128/99 92/127/98 91/175/91 120/190/104
f 87/164/131 127/167/134 128/194/107 88/182/106
f 132/160/127 96/159/126 95/179/105 131/195/108
f 130/196/111 94/186/110 93/158/125 129/161/128
f 85/177/109 125/197/112 126/166/133 86/165/132
f 127/198/134 134/170/135 128/169/107
f 136/171/136 132/173/127 131/168/108
f 125/154/112 133/157/124 126/199/133
f 129/172/128 135/156/123 130/155/111
f 87/164/131 102/148/117 103/149/118 86/165/132
f 133/157/124 134/170/135 127/198/134 126/199/133
