# Blender v2.77 (sub 0) OBJ File: ''
# www.blender.org
mtllib sickle.mtl
o sickle_sickle_lp
v -0.055571 4.246797 2.038885
v -0.055571 5.152456 -0.034433
v -0.055571 3.061922 -2.014781
v -0.055572 1.267438 -0.171875
v -0.055571 1.205185 -0.110756
v -0.055571 1.839438 -1.386297
v -0.055571 4.552207 -1.441859
v -0.055571 5.005359 0.997546
v -0.055571 2.383539 -1.838389
v -0.055572 1.431523 -0.749009
v -0.055571 3.931919 -1.862351
v -0.055571 4.989172 -0.802297
v -0.013074 4.085690 2.083548
v -0.013075 4.391037 1.488986
v -0.013075 4.610128 0.845589
v -0.013075 4.641222 0.034852
v -0.013075 4.457685 -0.552432
v -0.055571 4.660223 1.686671
v -0.013075 4.112532 -0.976740
v -0.013075 3.686622 -1.273166
v -0.013075 3.161383 -1.377162
v -0.013075 2.570940 -1.278015
v -0.013075 2.114681 -0.966504
v -0.013075 1.704176 -0.414626
v -0.029101 1.457970 -0.046060
v -0.055573 1.267483 0.073278
v -0.055573 1.068714 0.078913
v -0.055573 1.068714 -0.074733
v 0.055574 4.246797 2.038885
v 0.055574 5.152456 -0.034432
v 0.055573 3.061922 -2.014781
v 0.055573 1.267438 -0.171875
v 0.055573 1.205185 -0.110756
v 0.055573 1.839438 -1.386296
v 0.055574 4.552207 -1.441859
v 0.055573 5.005359 0.997546
v 0.055573 2.383539 -1.838389
v 0.055573 1.431523 -0.749009
v 0.055574 3.931919 -1.862351
v 0.055574 4.989172 -0.802296
v 0.013073 4.085690 2.083549
v 0.013073 4.391037 1.488986
v 0.013073 4.610128 0.845590
v 0.013073 4.641222 0.034853
v 0.013072 4.457685 -0.552431
v 0.055574 4.660223 1.686671
v 0.013072 4.112532 -0.976740
v 0.013072 3.686622 -1.273166
v 0.013072 3.161383 -1.377162
v 0.013072 2.570940 -1.278015
v 0.013072 2.114681 -0.966503
v 0.013073 1.704176 -0.414626
v 0.029099 1.457970 -0.046059
v 0.055572 1.267483 0.073278
v 0.055572 1.068714 0.078913
v 0.055572 1.068714 -0.074733
v 0.000000 -0.740664 -0.232677
v 0.000000 0.740664 -0.206896
v 0.136764 -0.740664 -0.188239
v 0.121610 0.740664 -0.167383
v 0.221288 -0.740664 -0.071901
v 0.196770 0.740664 -0.063934
v 0.221288 -0.740664 0.071901
v 0.196770 0.740664 0.063935
v 0.136764 -0.740664 0.188239
v 0.121610 0.740664 0.167383
v 0.000000 -0.740664 0.232676
v 0.000000 0.740664 0.206896
v -0.136764 -0.740664 0.188239
v -0.121610 0.740664 0.167383
v -0.221288 -0.740664 0.071901
v -0.196770 0.740664 0.063935
v -0.221288 -0.740664 -0.071901
v -0.196770 0.740664 -0.063934
v -0.136764 -0.740664 -0.188239
v -0.121610 0.740664 -0.167383
v 0.000000 -0.432942 -0.246824
v 0.145080 -0.432942 -0.199685
v 0.234744 -0.432942 -0.076273
v 0.234744 -0.432942 0.076273
v 0.145080 -0.432942 0.199685
v 0.000000 -0.432942 0.246824
v -0.145080 -0.432942 0.199685
v -0.234744 -0.432942 0.076273
v -0.234744 -0.432942 -0.076273
v -0.145080 -0.432942 -0.199685
v 0.000000 -0.816133 -0.096650
v 0.056809 -0.816133 -0.078191
v 0.091919 -0.816133 -0.029866
v 0.091919 -0.816133 0.029866
v 0.056809 -0.816133 0.078191
v 0.000000 -0.816133 0.096649
v -0.056809 -0.816133 0.078191
v -0.091919 -0.816133 0.029866
v -0.091919 -0.816133 -0.029866
v -0.056809 -0.816133 -0.078191
v 0.157184 0.768107 -0.216345
v 0.000000 0.768107 -0.267417
v 0.254329 0.768107 -0.082636
v 0.254329 0.768107 0.082637
v 0.157184 0.768107 0.216345
v 0.000000 0.768107 0.267417
v -0.157184 0.768107 0.216345
v -0.254329 0.768107 0.082637
v -0.254329 0.768107 -0.082636
v -0.157184 0.768107 -0.216345
v 0.092290 0.950865 -0.127027
v 0.000000 0.950865 -0.157013
v 0.149329 0.950865 -0.048520
v 0.149329 0.950865 0.048520
v 0.092290 0.950865 0.127027
v 0.000000 0.950865 0.157014
v -0.092290 0.950865 0.127027
v -0.149329 0.950865 0.048520
v -0.149329 0.950865 -0.048520
v -0.092290 0.950865 -0.127027
v 0.149212 0.919202 -0.205373
v 0.000000 0.919202 -0.253855
v 0.241431 0.919202 -0.078446
v 0.241431 0.919202 0.078446
v 0.149212 0.919202 0.205374
v 0.000000 0.919202 0.253856
v -0.149212 0.919202 0.205374
v -0.241431 0.919202 0.078446
v -0.241431 0.919202 -0.078446
v -0.149212 0.919202 -0.205373
v 0.076048 1.129245 -0.104671
v 0.000000 1.129245 -0.129381
v 0.123049 1.129245 -0.039981
v 0.123049 1.129245 0.039981
v 0.076048 1.129245 0.104672
v 0.000000 1.129245 0.129381
v -0.076048 1.129245 0.104672
v -0.123049 1.129245 0.039981
v -0.123049 1.129245 -0.039981
v -0.076048 1.129245 -0.104671
v -0.055571 4.460713 1.892068
v -0.013074 4.254397 1.769494
v 0.055574 4.460713 1.892068
v 0.013073 4.254397 1.769495
v -0.013075 4.512815 1.187245
v -0.055571 4.856851 1.371924
v 0.013073 4.512815 1.187245
v 0.055574 4.856851 1.371925
v -0.055571 5.115063 0.495462
v -0.013075 4.659050 0.458539
v 0.055574 5.115063 0.495463
v 0.013073 4.659050 0.458540
v -0.055571 5.104188 -0.431714
v -0.013075 4.573596 -0.280786
v 0.055574 5.104188 -0.431714
v 0.013072 4.573596 -0.280786
v -0.055571 4.795720 -1.141546
v -0.013075 4.302722 -0.778492
v 0.055574 4.795720 -1.141546
v 0.013072 4.302722 -0.778492
v -0.055571 4.280734 -1.658342
v -0.013075 3.932774 -1.129235
v 0.055574 4.280734 -1.658342
v 0.013072 3.932774 -1.129235
v -0.055571 3.499688 -1.977890
v -0.013075 3.429343 -1.350528
v 0.055573 3.499688 -1.977890
v 0.013072 3.429343 -1.350528
v -0.055571 2.697740 -1.955420
v -0.013075 2.855964 -1.349838
v 0.055573 2.697740 -1.955420
v 0.013072 2.855964 -1.349838
v -0.055571 2.082653 -1.618751
v -0.013075 2.328905 -1.146159
v 0.055573 2.082653 -1.618751
v 0.013072 2.328905 -1.146159
v -0.055571 1.602106 -1.062313
v -0.013075 1.913433 -0.727944
v 0.055573 1.602106 -1.062313
v 0.013072 1.913433 -0.727944
v -0.055572 1.237229 -0.132065
v -0.043042 1.359527 0.042803
v 0.055573 1.237229 -0.132065
v 0.043041 1.359527 0.042803
vt 0.4807 0.7901
vt 0.4276 0.7959
vt 0.4386 0.7274
vt 0.4984 0.7450
vt 0.3809 0.7014
vt 0.3587 0.7731
vt 0.2898 0.7504
vt 0.3232 0.6754
vt 0.2666 0.6244
vt 0.2111 0.6922
vt 0.1324 0.6341
vt 0.2101 0.5733
vt 0.1833 0.5220
vt 0.0910 0.5711
vt 0.0497 0.5081
vt 0.1565 0.4706
vt 0.1523 0.4194
vt 0.0368 0.4362
vt 0.0240 0.3643
vt 0.1481 0.3681
vt 0.1545 0.3197
vt 0.0365 0.2940
vt 0.0490 0.2236
vt 0.1610 0.2713
vt 0.1900 0.2301
vt 0.0954 0.1548
vt 0.1418 0.0859
vt 0.2190 0.1890
vt 0.2634 0.1535
vt 0.2007 0.0513
vt 0.2597 0.0166
vt 0.3079 0.1181
vt 0.3608 0.1086
vt 0.3290 0.0120
vt 0.3983 0.0074
vt 0.4137 0.0991
vt 0.4760 0.1105
vt 0.4642 0.0208
vt 0.5301 0.0341
vt 0.5384 0.1218
vt 0.6251 0.0982
vt 0.6256 0.1423
vt 0.6436 0.1365
vt 0.6343 0.0963
vt 0.6434 0.0944
vt 0.6615 0.1306
vt 0.6658 0.0809
vt 0.6862 0.1007
vt 0.3551 0.8856
vt 0.3546 0.8368
vt 0.4171 0.8418
vt 0.4030 0.9102
vt 0.4808 0.8380
vt 0.5444 0.8343
vt 0.5489 0.9168
vt 0.4759 0.9135
vt 0.6159 0.8066
vt 0.6874 0.7788
vt 0.7387 0.8639
vt 0.6438 0.8903
vt 0.7310 0.7401
vt 0.7746 0.7014
vt 0.8616 0.7750
vt 0.8002 0.8195
vt 0.7970 0.6547
vt 0.8193 0.6080
vt 0.9375 0.6490
vt 0.8995 0.7120
vt 0.8306 0.5601
vt 0.8420 0.5123
vt 0.9644 0.5076
vt 0.9509 0.5783
vt 0.8294 0.4632
vt 0.8169 0.4141
vt 0.9265 0.3448
vt 0.9454 0.4262
vt 0.7878 0.3648
vt 0.7588 0.3155
vt 0.8405 0.2373
vt 0.8835 0.2911
vt 0.7124 0.2876
vt 0.6660 0.2597
vt 0.7134 0.1790
vt 0.7769 0.2081
vt 0.6033 0.2480
vt 0.5406 0.2363
vt 0.5799 0.1568
vt 0.6466 0.1679
vt 0.4511 0.2242
vt 0.4674 0.1830
vt 0.4363 0.2123
vt 0.4216 0.2004
vt 0.4516 0.1728
vt 0.4595 0.1779
vt 0.4354 0.1521
vt 0.4091 0.1634
vt 0.6579 0.0113
vt 0.7484 0.0113
vt 0.7484 0.0275
vt 0.6579 0.0275
vt 0.8280 0.0538
vt 0.7773 0.0538
vt 0.7773 0.0499
vt 0.8280 0.0499
vt 0.8087 0.9510
vt 0.7432 0.9510
vt 0.7432 0.9348
vt 0.8087 0.9348
vt 0.7056 0.0561
vt 0.7056 0.0475
vt 0.5727 0.9510
vt 0.5151 0.9510
vt 0.5151 0.9348
vt 0.5727 0.9348
vt 0.6906 0.0581
vt 0.6756 0.0601
vt 0.6756 0.0436
vt 0.6906 0.0455
vt 0.0851 0.9510
vt 0.0429 0.9510
vt 0.0429 0.9348
vt 0.0851 0.9348
vt 0.6446 0.0601
vt 0.6446 0.0436
vt 0.0767 0.9689
vt 0.1266 0.9689
vt 0.1266 0.9728
vt 0.0767 0.9728
vt 0.1772 0.9689
vt 0.2279 0.9689
vt 0.2279 0.9728
vt 0.1772 0.9728
vt 0.0179 0.9448
vt 0.0179 0.9410
vt 0.6226 0.0113
vt 0.6432 0.0113
vt 0.6432 0.0275
vt 0.6226 0.0275
vt 0.2889 0.9689
vt 0.3499 0.9689
vt 0.3499 0.9728
vt 0.2889 0.9728
vt 0.4556 0.9510
vt 0.3962 0.9510
vt 0.3962 0.9348
vt 0.4556 0.9348
vt 0.3962 0.9689
vt 0.4426 0.9689
vt 0.4426 0.9728
vt 0.3962 0.9728
vt 0.9282 0.9510
vt 0.8742 0.9510
vt 0.8742 0.9348
vt 0.9282 0.9348
vt 0.1845 0.9510
vt 0.1272 0.9510
vt 0.1272 0.9348
vt 0.1845 0.9348
vt 0.6505 0.0113
vt 0.6505 0.0275
vt 0.4837 0.9689
vt 0.5249 0.9689
vt 0.5249 0.9728
vt 0.4837 0.9728
vt 0.8015 0.0113
vt 0.8545 0.0113
vt 0.8545 0.0275
vt 0.8015 0.0275
vt 0.5640 0.9689
vt 0.6031 0.9689
vt 0.6031 0.9728
vt 0.5640 0.9728
vt 0.6868 0.9510
vt 0.6304 0.9510
vt 0.6304 0.9348
vt 0.6868 0.9348
vt 0.6434 0.9689
vt 0.6837 0.9689
vt 0.6837 0.9728
vt 0.6434 0.9728
vt 0.3190 0.9510
vt 0.2418 0.9510
vt 0.2418 0.9348
vt 0.3190 0.9348
vt 0.7292 0.9689
vt 0.7747 0.9689
vt 0.7747 0.9728
vt 0.7292 0.9728
vt 0.9093 0.0113
vt 0.9641 0.0113
vt 0.9641 0.0275
vt 0.9093 0.0275
vt 0.9217 0.0538
vt 0.8787 0.0538
vt 0.8787 0.0499
vt 0.9217 0.0499
vt 0.7461 0.4480
vt 0.7491 0.6744
vt 0.7241 0.6744
vt 0.7213 0.4480
vt 0.6992 0.6744
vt 0.6969 0.4480
vt 0.6742 0.6744
vt 0.6727 0.4480
vt 0.6493 0.6744
vt 0.6486 0.4480
vt 0.6243 0.6744
vt 0.6245 0.4480
vt 0.5994 0.6744
vt 0.6004 0.4480
vt 0.5744 0.6744
vt 0.5762 0.4480
vt 0.5495 0.6744
vt 0.5518 0.4480
vt 0.1735 0.8037
vt 0.1661 0.7805
vt 0.1765 0.7729
vt 0.1864 0.8036
vt 0.5245 0.6744
vt 0.5271 0.4480
vt 0.4997 0.6744
vt 0.5020 0.4480
vt 0.3728 0.4993
vt 0.3821 0.4706
vt 0.4069 0.4882
vt 0.4032 0.4988
vt 0.5274 0.3874
vt 0.5031 0.3874
vt 0.5517 0.3874
vt 0.5761 0.3874
vt 0.6004 0.3874
vt 0.6247 0.3874
vt 0.6490 0.3874
vt 0.6732 0.3874
vt 0.6973 0.3874
vt 0.7212 0.3874
vt 0.7449 0.3874
vt 0.4365 0.4889
vt 0.4399 0.4997
vt 0.4362 0.5103
vt 0.4269 0.5167
vt 0.4156 0.5164
vt 0.4065 0.5096
vt 0.4162 0.4818
vt 0.4275 0.4821
vt 0.3821 0.5279
vt 0.4064 0.5456
vt 0.4366 0.5456
vt 0.4610 0.4707
vt 0.4703 0.4992
vt 0.4610 0.5279
vt 0.4366 0.4530
vt 0.4065 0.4530
vt 0.2482 0.2683
vt 0.2482 0.2405
vt 0.2755 0.2402
vt 0.2755 0.2680
vt 0.1465 0.7662
vt 0.1504 0.7539
vt 0.1222 0.7661
vt 0.1182 0.7539
vt 0.1026 0.7804
vt 0.0921 0.7729
vt 0.0952 0.8035
vt 0.0823 0.8036
vt 0.1027 0.8266
vt 0.0923 0.8343
vt 0.1223 0.8410
vt 0.1184 0.8533
vt 0.1661 0.8268
vt 0.1766 0.8342
vt 0.1465 0.8410
vt 0.1506 0.8533
vt 0.2944 0.4140
vt 0.2944 0.3956
vt 0.3341 0.3955
vt 0.3341 0.4140
vt 0.2482 0.4678
vt 0.2482 0.4394
vt 0.2755 0.4395
vt 0.2755 0.4680
vt 0.2482 0.3821
vt 0.2482 0.3535
vt 0.2755 0.3534
vt 0.2755 0.3821
vt 0.2482 0.2965
vt 0.2755 0.2963
vt 0.2482 0.4960
vt 0.2755 0.4962
vt 0.2482 0.4108
vt 0.2755 0.4109
vt 0.2482 0.3249
vt 0.2755 0.3247
vt 0.2482 0.5238
vt 0.2755 0.5241
vt 0.4512 0.3906
vt 0.4453 0.3725
vt 0.4616 0.3606
vt 0.4713 0.3904
vt 0.4300 0.3613
vt 0.4362 0.3421
vt 0.4111 0.3612
vt 0.4047 0.3420
vt 0.3957 0.3723
vt 0.3793 0.3605
vt 0.3898 0.3903
vt 0.3696 0.3904
vt 0.3956 0.4084
vt 0.3793 0.4203
vt 0.4109 0.4196
vt 0.4048 0.4388
vt 0.4299 0.4197
vt 0.4363 0.4388
vt 0.4453 0.4086
vt 0.4617 0.4203
vt 0.4394 0.5958
vt 0.4394 0.6116
vt 0.4301 0.6243
vt 0.4151 0.6292
vt 0.4001 0.6243
vt 0.3909 0.6116
vt 0.3909 0.5958
vt 0.4001 0.5831
vt 0.4151 0.5782
vt 0.4301 0.5831
vt 0.2944 0.3594
vt 0.2944 0.3419
vt 0.3341 0.3415
vt 0.3341 0.3590
vt 0.2944 0.4862
vt 0.2944 0.4687
vt 0.3341 0.4691
vt 0.3341 0.4866
vt 0.2944 0.4325
vt 0.3341 0.4326
vt 0.2944 0.3773
vt 0.3341 0.3771
vt 0.2944 0.5030
vt 0.3341 0.5036
vt 0.2944 0.4508
vt 0.3341 0.4510
vt 0.2944 0.3251
vt 0.3341 0.3245
vt 0.0268 0.9689
vt 0.0268 0.9728
vt 0.3072 0.8611
vt 0.2921 0.8319
vt 0.5338 0.7843
vt 0.5582 0.7625
vt 0.9821 0.9510
vt 0.9821 0.9348
vt 0.9648 0.0538
vt 0.9648 0.0499
vn -0.7443 0.4067 0.5298
vn -0.7272 0.5332 0.4322
vn -0.6672 -0.6762 -0.3123
vn -0.6387 -0.6739 -0.3713
vn -0.6786 -0.6931 -0.2434
vn -0.7244 0.6131 0.3152
vn -0.7232 0.6598 0.2043
vn -0.6873 -0.7110 -0.1486
vn -0.6923 -0.7208 -0.0339
vn -0.7222 0.6842 0.1013
vn -0.7141 0.6999 -0.0148
vn -0.6957 -0.7130 0.0871
vn -0.7008 -0.6808 0.2128
vn -0.7133 0.6858 -0.1444
vn -0.7078 0.6488 -0.2795
vn -0.7031 -0.6246 0.3399
vn -0.7004 -0.5552 0.4485
vn -0.7127 0.5800 -0.3946
vn -0.7062 0.4990 -0.5023
vn -0.6943 -0.4937 0.5237
vn -0.7026 -0.4111 0.5809
vn -0.7140 0.3958 -0.5775
vn -0.7005 0.2745 -0.6588
vn -0.7098 -0.2808 0.6460
vn -0.7045 -0.1375 0.6962
vn -0.7105 0.1207 -0.6933
vn -0.7029 -0.0281 -0.7107
vn -0.7041 -0.0029 0.7101
vn -0.7002 0.1216 0.7035
vn -0.7088 -0.1826 -0.6814
vn -0.7016 -0.3404 -0.6260
vn -0.7093 0.2605 0.6550
vn -0.7003 0.4051 0.5878
vn -0.7195 -0.4478 -0.5308
vn -0.7170 -0.5257 -0.4577
vn -0.6944 0.5103 0.5073
vn -0.6845 0.5846 0.4355
vn -0.7244 -0.5837 -0.3667
vn -0.7182 -0.6459 -0.2590
vn -0.6632 0.6309 0.4026
vn -0.7914 -0.5350 -0.2959
vn -0.6358 0.6056 0.4786
vn -0.6415 0.4269 0.6373
vn -0.7701 -0.3904 -0.5046
vn -0.7497 -0.2376 -0.6177
vn -0.6893 0.1569 0.7073
vn -0.7586 -0.1663 -0.6300
vn -0.7006 0.0202 0.7132
vn 0.7443 0.4067 0.5298
vn 0.6387 -0.6739 -0.3713
vn 0.6672 -0.6762 -0.3123
vn 0.7272 0.5332 0.4322
vn 0.6786 -0.6931 -0.2434
vn 0.6873 -0.7110 -0.1486
vn 0.7232 0.6598 0.2043
vn 0.7244 0.6131 0.3152
vn 0.6923 -0.7209 -0.0339
vn 0.6957 -0.7130 0.0871
vn 0.7141 0.6999 -0.0148
vn 0.7223 0.6842 0.1013
vn 0.7008 -0.6808 0.2128
vn 0.7031 -0.6246 0.3399
vn 0.7078 0.6488 -0.2795
vn 0.7133 0.6858 -0.1444
vn 0.7004 -0.5552 0.4485
vn 0.6942 -0.4937 0.5237
vn 0.7062 0.4990 -0.5023
vn 0.7127 0.5800 -0.3946
vn 0.7025 -0.4111 0.5809
vn 0.7098 -0.2808 0.6460
vn 0.7005 0.2745 -0.6588
vn 0.7140 0.3958 -0.5775
vn 0.7045 -0.1375 0.6963
vn 0.7041 -0.0029 0.7101
vn 0.7029 -0.0281 -0.7107
vn 0.7105 0.1207 -0.6933
vn 0.7002 0.1216 0.7036
vn 0.7093 0.2605 0.6550
vn 0.7016 -0.3404 -0.6260
vn 0.7088 -0.1826 -0.6814
vn 0.7003 0.4051 0.5878
vn 0.6944 0.5103 0.5073
vn 0.7170 -0.5257 -0.4577
vn 0.7195 -0.4478 -0.5308
vn 0.6845 0.5846 0.4355
vn 0.6632 0.6309 0.4026
vn 0.7182 -0.6459 -0.2590
vn 0.7245 -0.5837 -0.3667
vn 0.6358 0.6056 0.4786
vn 0.7914 -0.5350 -0.2959
vn 0.6415 0.4269 0.6373
vn 0.6893 0.1569 0.7073
vn 0.7497 -0.2376 -0.6177
vn 0.7701 -0.3904 -0.5045
vn 0.7586 -0.1663 -0.6300
vn 0.7006 0.0202 0.7132
vn -0.7609 0.2076 0.6147
vn 0.7609 0.2076 0.6147
vn -0.5080 -0.6626 0.5503
vn 0.5080 -0.6626 0.5503
vn 0.0000 -0.0059 -1.0000
vn 0.0000 -0.5831 -0.8124
vn 0.4775 -0.5831 -0.6572
vn 0.5878 -0.0059 -0.8090
vn 0.7726 -0.5831 -0.2510
vn 0.9510 -0.0059 -0.3090
vn 0.7726 -0.5831 0.2510
vn 0.9510 -0.0059 0.3090
vn 0.4775 -0.5831 0.6572
vn 0.5878 -0.0059 0.8090
vn 0.0000 -0.5831 0.8124
vn 0.0000 -0.0059 1.0000
vn -0.4775 -0.5831 0.6572
vn -0.5878 -0.0059 0.8090
vn -0.7726 -0.5831 0.2510
vn -0.9510 -0.0059 0.3090
vn -0.7726 -0.5831 -0.2510
vn -0.9510 -0.0059 -0.3090
vn -0.4775 -0.5831 -0.6572
vn -0.5220 -0.4596 -0.7185
vn 0.0000 -0.4596 -0.8881
vn -0.5878 -0.0059 -0.8090
vn -0.5130 -0.4881 0.7061
vn -0.8301 -0.4881 0.2697
vn -0.2817 -0.9551 0.0915
vn -0.1741 -0.9551 0.2397
vn -0.5130 -0.4881 -0.7061
vn 0.0000 -0.4881 -0.8728
vn -0.8301 -0.4881 -0.2697
vn 0.0000 -0.4881 0.8728
vn 0.5130 -0.4881 0.7061
vn 0.8301 -0.4881 0.2697
vn 0.8301 -0.4881 -0.2697
vn 0.5130 -0.4881 -0.7061
vn 0.0000 -0.9551 -0.2962
vn 0.1741 -0.9551 -0.2397
vn 0.2817 -0.9551 -0.0915
vn 0.2817 -0.9551 0.0915
vn 0.1741 -0.9551 0.2397
vn 0.0000 -0.9551 0.2962
vn -0.2817 -0.9551 -0.0915
vn -0.1741 -0.9551 -0.2397
vn 0.5220 -0.4596 -0.7185
vn 0.0000 0.5745 -0.8185
vn 0.4811 0.5745 -0.6622
vn -0.8446 -0.4596 -0.2744
vn -0.8446 -0.4596 0.2744
vn -0.5220 -0.4596 0.7185
vn 0.0000 -0.4596 0.8881
vn 0.5220 -0.4596 0.7185
vn 0.8446 -0.4596 0.2744
vn 0.8446 -0.4596 -0.2744
vn 0.0000 0.7032 0.7110
vn 0.4179 0.7032 0.5752
vn 0.4197 0.7000 0.5777
vn 0.0000 0.7000 0.7141
vn -0.7784 0.5745 0.2529
vn -0.7784 0.5745 -0.2529
vn 0.4811 0.5745 0.6622
vn -0.0000 0.5745 0.8185
vn 0.7784 0.5745 -0.2529
vn -0.4811 0.5745 -0.6622
vn -0.4811 0.5745 0.6622
vn 0.7784 0.5745 0.2529
vn 0.0000 0.7032 -0.7110
vn 0.4179 0.7032 -0.5752
vn 0.6762 0.7032 -0.2197
vn 0.6762 0.7032 0.2197
vn -0.4179 0.7032 0.5752
vn -0.6762 0.7032 0.2197
vn -0.6762 0.7032 -0.2197
vn -0.4179 0.7032 -0.5752
vn 0.4197 0.7000 -0.5777
vn 0.0000 0.7000 -0.7141
vn -0.4197 0.7000 -0.5777
vn -0.6792 0.7000 -0.2207
vn -0.6792 0.7000 0.2207
vn -0.4197 0.7000 0.5777
vn 0.6792 0.7000 0.2207
vn 0.6792 0.7000 -0.2207
usemtl sickle
s 1
f 137/1/1 18/2/2 14/3/3 138/4/4
f 141/5/5 142/6/6 8/7/7 15/8/8
f 146/9/9 145/10/10 2/11/11 16/12/12
f 150/13/13 149/14/14 12/15/15 17/16/16
f 154/17/17 153/18/18 7/19/19 19/20/20
f 158/21/21 157/22/22 11/23/23 20/24/24
f 162/25/25 161/26/26 3/27/27 21/28/28
f 166/29/29 165/30/30 9/31/31 22/32/32
f 170/33/33 169/34/34 6/35/35 23/36/36
f 174/37/37 173/38/38 10/39/39 24/40/40
f 24/40/40 10/39/39 4/41/41 25/42/42
f 178/43/43 177/44/44 5/45/45 26/46/46
f 28/47/47 27/48/48 26/46/46 5/45/45
f 139/49/49 140/50/50 42/51/51 46/52/52
f 143/53/53 43/54/54 36/55/55 144/56/56
f 148/57/57 44/58/58 30/59/59 147/60/60
f 152/61/61 45/62/62 40/63/63 151/64/64
f 156/65/65 47/66/66 35/67/67 155/68/68
f 160/69/69 48/70/70 39/71/71 159/72/72
f 164/73/73 49/74/74 31/75/75 163/76/76
f 168/77/77 50/78/78 37/79/79 167/80/80
f 172/81/81 51/82/82 34/83/83 171/84/84
f 176/85/85 52/86/86 38/87/87 175/88/88
f 52/86/86 53/89/89 32/90/90 38/87/87
f 180/91/91 54/92/92 33/93/93 179/94/94
f 56/95/95 33/93/93 54/92/92 55/96/96
f 4/97/41 10/98/39 38/99/87 32/100/90
f 174/101/37 24/102/40 52/103/86 176/104/85
f 161/105/26 11/106/23 39/107/71 163/108/76
f 24/102/40 25/109/42 53/110/89 52/103/86
f 153/111/18 12/112/15 40/113/63 155/114/68
f 178/115/43 26/116/46 54/117/92 180/118/91
f 137/119/1 1/120/97 29/121/98 139/122/49
f 26/116/46 27/123/48 55/124/96 54/117/92
f 138/125/4 14/126/3 42/127/51 140/128/50
f 141/129/5 15/130/8 43/131/54 143/132/53
f 1/120/97 13/133/99 41/134/100 29/121/98
f 28/135/47 5/136/45 33/137/93 56/138/95
f 146/139/9 16/140/12 44/141/58 148/142/57
f 149/143/14 2/144/11 30/145/59 151/146/64
f 150/147/13 17/148/16 45/149/62 152/150/61
f 165/151/30 3/152/27 31/153/75 167/154/80
f 142/155/6 18/156/2 46/157/52 144/158/56
f 177/159/44 4/97/41 32/100/90 179/160/94
f 154/161/17 19/162/20 47/163/66 156/164/65
f 173/165/38 6/166/35 34/167/83 175/168/88
f 158/169/21 20/170/24 48/171/70 160/172/69
f 157/173/22 7/174/19 35/175/67 159/176/72
f 162/177/25 21/178/28 49/179/74 164/180/73
f 145/181/10 8/182/7 36/183/55 147/184/60
f 166/185/29 22/186/32 50/187/78 168/188/77
f 169/189/34 9/190/31 37/191/79 171/192/84
f 170/193/33 23/194/36 51/195/82 172/196/81
f 77/197/101 58/198/102 60/199/103 78/200/104
f 78/200/104 60/199/103 62/201/105 79/202/106
f 79/202/106 62/201/105 64/203/107 80/204/108
f 80/204/108 64/203/107 66/205/109 81/206/110
f 81/206/110 66/205/109 68/207/111 82/208/112
f 82/208/112 68/207/111 70/209/113 83/210/114
f 83/210/114 70/209/113 72/211/115 84/212/116
f 84/212/116 72/211/115 74/213/117 85/214/118
f 58/215/102 76/216/119 106/217/120 98/218/121
f 85/214/118 74/213/117 76/219/119 86/220/122
f 86/220/122 76/219/119 58/221/102 77/222/101
f 69/223/123 71/224/124 94/225/125 93/226/126
f 75/227/127 86/220/122 77/222/101 57/228/128
f 73/229/129 85/214/118 86/220/122 75/227/127
f 71/230/124 84/212/116 85/214/118 73/229/129
f 69/231/123 83/210/114 84/212/116 71/230/124
f 67/232/130 82/208/112 83/210/114 69/231/123
f 65/233/131 81/206/110 82/208/112 67/232/130
f 63/234/132 80/204/108 81/206/110 65/233/131
f 61/235/133 79/202/106 80/204/108 63/234/132
f 59/236/134 78/200/104 79/202/106 61/235/133
f 57/237/128 77/197/101 78/200/104 59/236/134
f 87/238/135 88/239/136 89/240/137 90/241/138 91/242/139 92/243/140 93/226/126 94/225/125 95/244/141 96/245/142
f 67/246/130 69/223/123 93/226/126 92/243/140
f 65/247/131 67/246/130 92/243/140 91/242/139
f 63/248/132 65/247/131 91/242/139 90/241/138
f 57/249/128 59/250/134 88/239/136 87/238/135
f 61/251/133 63/248/132 90/241/138 89/240/137
f 59/250/134 61/251/133 89/240/137 88/239/136
f 75/252/127 57/249/128 87/238/135 96/245/142
f 73/253/129 75/252/127 96/245/142 95/244/141
f 71/224/124 73/253/129 95/244/141 94/225/125
f 97/254/143 98/255/121 118/256/144 117/257/145
f 76/216/119 74/258/117 105/259/146 106/217/120
f 74/258/117 72/260/115 104/261/147 105/259/146
f 72/260/115 70/262/113 103/263/148 104/261/147
f 70/262/113 68/264/111 102/265/149 103/263/148
f 68/264/111 66/266/109 101/267/150 102/265/149
f 66/266/109 64/268/107 100/269/151 101/267/150
f 60/270/103 58/215/102 98/218/121 97/271/143
f 64/268/107 62/272/105 99/273/152 100/269/151
f 62/272/105 60/270/103 97/271/143 99/273/152
f 112/274/153 111/275/154 131/276/155 132/277/156
f 105/278/146 104/279/147 124/280/157 125/281/158
f 102/282/149 101/283/150 121/284/159 122/285/160
f 99/286/152 97/254/143 117/257/145 119/287/161
f 106/288/120 105/278/146 125/281/158 126/289/162
f 103/290/148 102/282/149 122/285/160 123/291/163
f 100/292/151 99/286/152 119/287/161 120/293/164
f 98/294/121 106/288/120 126/289/162 118/295/144
f 104/279/147 103/290/148 123/291/163 124/280/157
f 101/283/150 100/292/151 120/293/164 121/284/159
f 108/296/165 107/297/166 117/298/145 118/299/144
f 107/297/166 109/300/167 119/301/161 117/298/145
f 109/300/167 110/302/168 120/303/164 119/301/161
f 110/302/168 111/304/154 121/305/159 120/303/164
f 111/304/154 112/306/153 122/307/160 121/305/159
f 112/306/153 113/308/169 123/309/163 122/307/160
f 113/308/169 114/310/170 124/311/157 123/309/163
f 114/310/170 115/312/171 125/313/158 124/311/157
f 115/312/171 116/314/172 126/315/162 125/313/158
f 116/314/172 108/296/165 118/299/144 126/315/162
f 127/316/173 128/317/174 136/318/175 135/319/176 134/320/177 133/321/178 132/322/156 131/323/155 130/324/179 129/325/180
f 109/326/167 107/327/166 127/328/173 129/329/180
f 116/330/172 115/331/171 135/332/176 136/333/175
f 113/334/169 112/274/153 132/277/156 133/335/178
f 110/336/168 109/326/167 129/329/180 130/337/179
f 108/338/165 116/330/172 136/333/175 128/339/174
f 114/340/170 113/334/169 133/335/178 134/341/177
f 111/275/154 110/336/168 130/337/179 131/276/155
f 107/327/166 108/342/165 128/343/174 127/328/173
f 115/331/171 114/340/170 134/341/177 135/332/176
f 13/344/99 138/125/4 140/128/50 41/345/100
f 18/156/2 137/119/1 139/122/49 46/157/52
f 29/346/98 41/347/100 140/50/50 139/49/49
f 1/348/97 137/1/1 138/4/4 13/349/99
f 8/182/7 142/155/6 144/158/56 36/183/55
f 14/126/3 141/129/5 143/132/53 42/127/51
f 42/51/51 143/53/53 144/56/56 46/52/52
f 14/3/3 18/2/2 142/6/6 141/5/5
f 2/144/11 145/181/10 147/184/60 30/145/59
f 15/130/8 146/139/9 148/142/57 43/131/54
f 43/54/54 148/57/57 147/60/60 36/55/55
f 15/8/8 8/7/7 145/10/10 146/9/9
f 16/140/12 150/147/13 152/150/61 44/141/58
f 12/112/15 149/143/14 151/146/64 40/113/63
f 44/58/58 152/61/61 151/64/64 30/59/59
f 16/12/12 2/11/11 149/14/14 150/13/13
f 17/148/16 154/161/17 156/164/65 45/149/62
f 7/174/19 153/111/18 155/114/68 35/175/67
f 45/62/62 156/65/65 155/68/68 40/63/63
f 17/16/16 12/15/15 153/18/18 154/17/17
f 11/106/23 157/173/22 159/176/72 39/107/71
f 19/162/20 158/169/21 160/172/69 47/163/66
f 47/66/66 160/69/69 159/72/72 35/67/67
f 19/20/20 7/19/19 157/22/22 158/21/21
f 20/170/24 162/177/25 164/180/73 48/171/70
f 3/152/27 161/105/26 163/108/76 31/153/75
f 48/70/70 164/73/73 163/76/76 39/71/71
f 20/24/24 11/23/23 161/26/26 162/25/25
f 21/178/28 166/185/29 168/188/77 49/179/74
f 9/350/31 165/151/30 167/154/80 37/351/79
f 49/74/74 168/77/77 167/80/80 31/75/75
f 21/28/28 3/27/27 165/30/30 166/29/29
f 22/352/32 170/193/33 172/196/81 50/353/78
f 6/166/35 169/189/34 171/192/84 34/167/83
f 50/78/78 172/81/81 171/84/84 37/79/79
f 22/32/32 9/31/31 169/34/34 170/33/33
f 10/98/39 173/165/38 175/168/88 38/99/87
f 23/194/36 174/101/37 176/104/85 51/195/82
f 51/82/82 176/85/85 175/88/88 34/83/83
f 23/36/36 6/35/35 173/38/38 174/37/37
f 5/136/45 177/159/44 179/160/94 33/137/93
f 25/109/42 178/115/43 180/118/91 53/110/89
f 53/89/89 180/91/91 179/94/94 32/90/90
f 25/42/42 4/41/41 177/44/44 178/43/43
